#!OML:ASF E:\Style4\Style4.ASF
:FULLY-SPECIFIED
:DEGREES
1214
root 1.02215 17.0183 -0.682298 5.50958 -4.80348 6.43595
lowerback 6.35071 2.42688 6.26246
upperback -1.52655 3.78279 0.63936
thorax -4.79752 1.69692 -3.22369
lowerneck 2.83196 0.284985 -5.30005
upperneck 6.78476 0.059799 5.20886
head 1.66035 -0.0120128 2.59308
rclavicle 5.59579e-014 2.38542e-014
rhumerus -89.4526 53.0147 -123.421
rradius 86.8076
rwrist 0.0435942
rhand -6.73627 34.0008
rfingers 7.12502
rthumb 19.1244 4.92109
lclavicle 5.59579e-014 2.38542e-014
lhumerus -28.4645 23.3337 19.9071
lradius 111.104
lwrist -15.2317
lhand -11.7818 34.6829
lfingers 7.12502
lthumb 14.2673 64.1728
rfemur -27.9588 4.7019 7.00841
rtibia 50.4591
rfoot -26.3944 -13.1623
rtoes -17.6944
lfemur -23.859 1.61673 -29.9595
ltibia 45.6202
lfoot -27.2844 8.11882
ltoes -12.3605
1215
root 1.03876 17.0113 -0.677572 5.41667 -4.81061 6.62575
lowerback 6.34529 2.39891 6.30122
upperback -1.487 3.74664 0.646863
thorax -4.75467 1.68031 -3.23262
lowerneck 2.8906 0.271906 -5.18685
upperneck 6.66828 0.0506625 5.07624
head 1.61148 -0.0164361 2.52571
rclavicle 2.38542e-014 -1.27222e-014
rhumerus -89.3897 53.0165 -123.304
rradius 86.8487
rwrist -0.00675563
rhand -6.8044 34.1858
rfingers 7.12502
rthumb 19.0589 5.09956
lclavicle 2.38542e-014 -1.27222e-014
lhumerus -28.4241 23.3981 20.0266
lradius 111.109
lwrist -15.2741
lhand -11.7756 34.6202
lfingers 7.12502
lthumb 14.2732 64.1097
rfemur -27.909 4.66505 6.73885
rtibia 50.5862
rfoot -26.5034 -13.1533
rtoes -17.7599
lfemur -23.7399 1.59088 -30.2288
ltibia 45.5921
lfoot -27.3757 8.22834
ltoes -12.7083
1216
root 1.05305 17.004 -0.672673 5.38592 -4.93603 6.84914
lowerback 6.29884 2.40291 6.23328
upperback -1.47455 3.74271 0.656893
thorax -4.72025 1.68199 -3.18111
lowerneck 2.85345 0.277516 -5.22976
upperneck 6.67848 0.0589655 5.07421
head 1.62106 -0.0129779 2.53334
rclavicle 1.96797e-014 1.90833e-014
rhumerus -89.4034 53.0484 -123.246
rradius 86.9104
rwrist -0.0219187
rhand -6.87413 34.115
rfingers 7.12502
rthumb 18.9919 5.02225
lclavicle 1.96797e-014 1.90833e-014
lhumerus -28.4715 23.4068 20.0843
lradius 111.149
lwrist -15.2611
lhand -11.7082 34.5587
lfingers 7.12502
lthumb 14.3382 64.0436
rfemur -28.0056 4.67634 6.41887
rtibia 50.741
rfoot -26.565 -13.103
rtoes -17.6487
lfemur -23.6922 1.64454 -30.5424
ltibia 45.5605
lfoot -27.4393 8.28755
ltoes -12.7794
1217
root 1.0663 16.9977 -0.669472 5.3533 -5.04107 6.98696
lowerback 6.30315 2.39363 6.26551
upperback -1.50168 3.73495 0.666413
thorax -4.75074 1.67567 -3.18953
lowerneck 3.05467 0.260224 -5.07457
upperneck 6.55138 0.0400581 4.91138
head 1.54409 -0.0233119 2.44735
rclavicle 2.97183e-014 7.95139e-015
rhumerus -89.4409 52.9914 -123.212
rradius 87.006
rwrist -0.0630518
rhand -6.74081 34.1508
rfingers 7.12502
rthumb 19.1201 5.07068
lclavicle 2.97183e-014 7.95139e-015
lhumerus -28.5373 23.2977 20.0972
lradius 111.192
lwrist -15.2679
lhand -11.625 34.5051
lfingers 7.12502
lthumb 14.4184 63.9843
rfemur -28.104 4.69171 6.20952
rtibia 50.9021
rfoot -26.6112 -13.0907
rtoes -17.6828
lfemur -23.6571 1.66742 -30.7462
ltibia 45.5543
lfoot -27.5018 8.20442
ltoes -12.0741
1218
root 1.07878 16.9924 -0.667643 5.33151 -5.12357 7.06844
lowerback 6.28723 2.38028 6.32928
upperback -1.52255 3.72388 0.706866
thorax -4.76376 1.66794 -3.18169
lowerneck 3.06287 0.249463 -4.92268
upperneck 6.59763 0.0333549 4.76105
head 1.55641 -0.0254213 2.36944
rclavicle -2.68359e-014 -4.77083e-015
rhumerus -89.4361 52.9466 -123.143
rradius 87.0647
rwrist -0.0883092
rhand -6.54939 34.228
rfingers 7.12502
rthumb 19.3042 5.16613
lclavicle -2.68359e-014 -4.77083e-015
lhumerus -28.6295 23.2361 20.1343
lradius 111.226
lwrist -15.3323
lhand -11.6949 34.4888
lfingers 7.12502
lthumb 14.351 63.9727
rfemur -28.1852 4.7135 6.06471
rtibia 51.0608
rfoot -26.7052 -13.0436
rtoes -17.8926
lfemur -23.6567 1.73113 -30.8951
ltibia 45.5762
lfoot -27.4434 8.24883
ltoes -11.9197
1219
root 1.09248 16.9863 -0.664255 5.30575 -5.25793 7.17302
lowerback 6.25617 2.39651 6.38367
upperback -1.50242 3.74714 0.723754
thorax -4.72064 1.68001 -3.19405
lowerneck 2.66477 0.20013 -4.91855
upperneck 6.96805 -0.0254659 4.76687
head 1.74933 -0.0506627 2.37669
rclavicle -1.91827e-014 -1.90833e-014
rhumerus -89.2657 52.9217 -122.948
rradius 87.0822
rwrist -0.0871665
rhand -6.34851 34.2948
rfingers 7.12502
rthumb 19.4973 5.25239
lclavicle -1.91827e-014 -1.90833e-014
lhumerus -28.5947 23.228 20.1969
lradius 111.257
lwrist -15.3942
lhand -11.7188 34.4883
lfingers 7.12502
lthumb 14.328 63.9739
rfemur -28.2714 4.74255 5.8699
rtibia 51.2149
rfoot -26.8449 -12.8176
rtoes -17.6834
lfemur -23.6552 1.84058 -31.0845
ltibia 45.6285
lfoot -27.4477 8.3543
ltoes -12.2499
1220
root 1.1048 16.9778 -0.660816 5.24412 -5.39387 7.2904
lowerback 6.26408 2.39774 6.41453
upperback -1.475 3.75136 0.743954
thorax -4.69543 1.68288 -3.19012
lowerneck 2.67657 0.174437 -4.88395
upperneck 6.92514 -0.0561261 4.7101
head 1.73439 -0.0661424 2.35066
rclavicle -4.55217e-014 -6.36111e-015
rhumerus -89.1619 52.9531 -122.824
rradius 87.1099
rwrist -0.0648212
rhand -6.2643 34.2452
rfingers 7.12502
rthumb 19.5783 5.21096
lclavicle -4.55217e-014 -6.36111e-015
lhumerus -28.568 23.2881 20.2476
lradius 111.269
lwrist -15.4743
lhand -11.6364 34.4154
lfingers 7.12502
lthumb 14.4074 63.8954
rfemur -28.337 4.79956 5.67263
rtibia 51.3734
rfoot -26.9564 -12.7082
rtoes -17.5018
lfemur -23.6354 1.9423 -31.2783
ltibia 45.7127
lfoot -27.5422 8.48282
ltoes -12.6129
1221
root 1.11551 16.9684 -0.660071 5.19215 -5.53656 7.38003
lowerback 6.31721 2.38994 6.44372
upperback -1.4809 3.75 0.793775
thorax -4.73359 1.68041 -3.15752
lowerneck 3.13691 0.171448 -4.93693
upperneck 6.48199 -0.06774 4.67433
head 1.5112 -0.0781747 2.3414
rclavicle -2.69353e-014 -9.54166e-015
rhumerus -89.2405 53.0289 -122.857
rradius 87.1271
rwrist -0.0608828
rhand -6.39371 34.1458
rfingers 7.12502
rthumb 19.4538 5.09895
lclavicle -2.69353e-014 -9.54166e-015
lhumerus -28.6741 23.3015 20.2885
lradius 111.289
lwrist -15.5495
lhand -11.7421 34.5717
lfingers 7.12502
lthumb 14.3055 64.0589
rfemur -28.451 4.89929 5.51744
rtibia 51.5488
rfoot -26.9139 -12.7888
rtoes -17.6474
lfemur -23.6627 2.05808 -31.4283
ltibia 45.8229
lfoot -27.6007 8.47751
ltoes -12.3173
1222
root 1.12612 16.9562 -0.661922 5.18204 -5.7075 7.44857
lowerback 6.35499 2.40769 6.47558
upperback -1.486 3.78196 0.849669
thorax -4.75916 1.69489 -3.12218
lowerneck 3.35284 0.164132 -4.99043
upperneck 6.23951 -0.0798959 4.62758
head 1.39634 -0.0880249 2.33243
rclavicle -7.85199e-015 6.36111e-015
rhumerus -89.1998 53.0666 -122.783
rradius 87.095
rwrist -0.0401935
rhand -6.50297 34.1176
rfingers 7.12502
rthumb 19.3488 5.06018
lclavicle -7.85199e-015 6.36111e-015
lhumerus -28.7284 23.3417 20.3964
lradius 111.29
lwrist -15.6557
lhand -11.7641 34.5406
lfingers 7.12502
lthumb 14.2843 64.0293
rfemur -28.6446 4.99754 5.38118
rtibia 51.7392
rfoot -26.8829 -12.8405
rtoes -18.0073
lfemur -23.754 2.19116 -31.5598
ltibia 45.9419
lfoot -27.6685 8.5425
ltoes -12.5087
1223
root 1.13797 16.9437 -0.661316 5.15326 -5.87039 7.56877
lowerback 6.3567 2.423 6.48116
upperback -1.47449 3.80295 0.864415
thorax -4.74663 1.70594 -3.11155
lowerneck 3.33148 0.173581 -4.94418
upperneck 6.22708 -0.062708 4.56832
head 1.39462 -0.0789549 2.30418
rclavicle 1.64991e-014 2.22639e-014
rhumerus -89.1455 53.0781 -122.734
rradius 87.092
rwrist -0.050982
rhand -6.49898 34.1848
rfingers 7.12502
rthumb 19.3526 5.12784
lclavicle 1.64991e-014 2.22639e-014
lhumerus -28.7269 23.3836 20.4696
lradius 111.282
lwrist -15.6644
lhand -11.8448 34.454
lfingers 7.12502
lthumb 14.2066 63.9481
rfemur -28.7914 5.07188 5.17985
rtibia 51.9298
rfoot -27.0059 -12.7665
rtoes -18.2073
lfemur -23.8011 2.32376 -31.7531
ltibia 46.0443
lfoot -27.7959 8.63224
ltoes -12.958
1224
root 1.14976 16.9361 -0.656026 5.05888 -5.99256 7.62079
lowerback 6.4533 2.40873 6.57816
upperback -1.49333 3.80068 0.866361
thorax -4.8159 1.69893 -3.16913
lowerneck 3.18074 0.146943 -4.85023
upperneck 6.47191 -0.0951265 4.545
head 1.50056 -0.0922007 2.28204
rclavicle 1.54058e-014 -3.02153e-014
rhumerus -89.2011 53.0595 -122.85
rradius 87.0785
rwrist -0.126206
rhand -6.40172 34.2616
rfingers 7.12502
rthumb 19.4461 5.214
lclavicle 1.54058e-014 -3.02153e-014
lhumerus -28.7454 23.338 20.4398
lradius 111.236
lwrist -15.6733
lhand -11.8827 34.5845
lfingers 7.12502
lthumb 14.17 64.0812
rfemur -28.7441 5.13645 5.07377
rtibia 52.094
rfoot -27.0554 -12.6429
rtoes -18.3887
lfemur -23.7152 2.40974 -31.86
ltibia 46.1047
lfoot -27.8945 8.62871
ltoes -12.758
1225
root 1.15975 16.9302 -0.650387 4.97588 -6.07653 7.78424
lowerback 6.57079 2.39122 6.55666
upperback -1.5617 3.78713 0.834255
thorax -4.95506 1.68578 -3.19807
lowerneck 2.92077 0.109026 -4.81121
upperneck 6.90156 -0.145571 4.5606
head 1.68717 -0.11418 2.28537
rclavicle -1.42131e-014 0
rhumerus -89.3228 52.9678 -122.986
rradius 87.0865
rwrist -0.0770024
rhand -6.35208 34.3315
rfingers 7.12502
rthumb 19.4939 5.28869
lclavicle -1.42131e-014 0
lhumerus -28.7853 23.183 20.4333
lradius 111.259
lwrist -15.727
lhand -11.8197 34.9106
lfingers 7.12502
lthumb 14.2307 64.4031
rfemur -28.7046 5.15422 4.84383
rtibia 52.2374
rfoot -27.0831 -12.4848
rtoes -18.2897
lfemur -23.631 2.46795 -32.0843
ltibia 46.1239
lfoot -27.9648 8.69838
ltoes -12.8859
1226
root 1.16723 16.9247 -0.646394 4.92366 -6.14178 7.94295
lowerback 6.56933 2.38154 6.48828
upperback -1.58562 3.76996 0.842276
thorax -4.98569 1.67788 -3.15083
lowerneck 2.7925 0.0944411 -4.79301
upperneck 7.1402 -0.162393 4.50309
head 1.7875 -0.122126 2.26592
rclavicle -1.67973e-014 -3.18055e-014
rhumerus -89.3296 52.9456 -122.954
rradius 87.0907
rwrist 0.0171507
rhand -6.18647 34.3834
rfingers 7.12502
rthumb 19.6531 5.3568
lclavicle -1.67973e-014 -3.18055e-014
lhumerus -28.8686 23.0817 20.4761
lradius 111.297
lwrist -15.7824
lhand -11.7221 35.0425
lfingers 7.12502
lthumb 14.3248 64.5284
rfemur -28.7798 5.14017 4.63027
rtibia 52.3456
rfoot -27.2227 -12.4908
rtoes -18.1091
lfemur -23.5765 2.53674 -32.2897
ltibia 46.1194
lfoot -28.0162 8.73199
ltoes -13.005
1227
root 1.17328 16.9181 -0.644263 4.90396 -6.28025 8.0932
lowerback 6.50067 2.41782 6.41072
upperback -1.56655 3.80544 0.846266
thorax -4.92793 1.7004 -3.10249
lowerneck 2.78325 0.0658857 -4.85451
upperneck 7.17815 -0.204258 4.54983
head 1.80442 -0.14376 2.293
rclavicle -4.05521e-014 -3.02153e-014
rhumerus -89.2223 52.926 -122.794
rradius 87.1216
rwrist 0.0694438
rhand -5.85463 34.2318
rfingers 7.12502
rthumb 19.9721 5.23813
lclavicle -4.05521e-014 -3.02153e-014
lhumerus -28.8544 23.1188 20.5582
lradius 111.277
lwrist -15.8255
lhand -11.5651 34.7977
lfingers 7.12502
lthumb 14.4761 64.2727
rfemur -28.9186 5.1612 4.42208
rtibia 52.4405
rfoot -27.3198 -12.495
rtoes -18.2614
lfemur -23.5714 2.67205 -32.4863
ltibia 46.1132
lfoot -28.0524 8.66731
ltoes -12.6938
1228
root 1.17808 16.912 -0.641973 4.86188 -6.50049 8.19747
lowerback 6.49382 2.46054 6.33991
upperback -1.54683 3.85557 0.861784
thorax -4.90369 1.72879 -3.05064
lowerneck 2.81449 0.0451061 -4.91302
upperneck 7.10891 -0.233936 4.57828
head 1.77861 -0.159821 2.31219
rclavicle -3.06128e-014 3.18055e-014
rhumerus -89.1729 52.9526 -122.734
rradius 87.1264
rwrist 0.0845578
rhand -5.36517 33.8142
rfingers 7.12502
rthumb 20.4425 4.87029
lclavicle -3.06128e-014 3.18055e-014
lhumerus -28.8799 23.1847 20.5844
lradius 111.295
lwrist -15.7899
lhand -11.4681 34.6638
lfingers 7.12502
lthumb 14.5695 64.1321
rfemur -29.0193 5.2954 4.26375
rtibia 52.5202
rfoot -27.3325 -12.3776
rtoes -18.2079
lfemur -23.5479 2.85896 -32.6362
ltibia 46.1067
lfoot -28.0467 8.68273
ltoes -12.6908
